<?xml version="1.0" encoding="utf-8"?>
<!-- Generator: Adobe Illustrator 16.2.0, SVG Export Plug-In . SVG Version: 6.00 Build 0)  -->
<!DOCTYPE svg PUBLIC "-//W3C//DTD SVG 1.1//EN" "http://www.w3.org/Graphics/SVG/1.1/DTD/svg11.dtd">
<svg version="1.1" id="Layer_1" xmlns="http://www.w3.org/2000/svg" xmlns:xlink="http://www.w3.org/1999/xlink" x="0px" y="0px"
	 width="281px" height="461px" viewBox="114.5 25.5 281 461" enable-background="new 114.5 25.5 281 461" xml:space="preserve">
<path id="mobile-phone-5-icon" fill="#FFFFFF" d="M336.109,128.72V427H175.89V128.72H336.109 M371.109,50h-34.139v43.72H165.276
	c-13.469,0-24.387,10.918-24.387,24.386v319.509c0,13.468,10.918,24.386,24.387,24.386h181.447
	c13.469,0,24.387-10.918,24.387-24.386V50L371.109,50z M224.797,405.989h-25.235v-23.897h25.235V405.989z M224.797,362.784h-25.235
	v-23.898h25.235V362.784z M224.797,319.579h-25.235v-23.897h25.235V319.579z M269.059,405.989h-25.234v-23.897h25.234V405.989z
	 M269.059,362.784h-25.234v-23.898h25.234V362.784z M269.059,319.579h-25.234v-23.897h25.234V319.579z M313.32,405.989h-25.234
	v-23.897h25.234V405.989z M313.32,362.784h-25.234v-23.898h25.234V362.784z M313.32,319.579h-25.234v-23.897h25.234V319.579z
	 M313.32,272.775H199.562V149.739H313.32V272.775z"/>
</svg>
