<?xml version="1.0" encoding="utf-8"?>
<!-- Generator: Adobe Illustrator 16.2.0, SVG Export Plug-In . SVG Version: 6.00 Build 0)  -->
<!DOCTYPE svg PUBLIC "-//W3C//DTD SVG 1.1//EN" "http://www.w3.org/Graphics/SVG/1.1/DTD/svg11.dtd">
<svg version="1.1" id="Layer_1" xmlns="http://www.w3.org/2000/svg" xmlns:xlink="http://www.w3.org/1999/xlink" x="0px" y="0px"
	 width="512px" height="512px" viewBox="0 0 512 512" enable-background="new 0 0 512 512" xml:space="preserve">
<path id="globe-icon" fill="#FFFFFF" d="M256,50C142.229,50,50,142.23,50,256c0,113.771,92.229,206,206,206
	c113.771,0,206-92.229,206-206C462,142.23,369.771,50,256,50z M404.742,185.737h-43.585c-5.722-26.686-14.791-52.106-27.243-74.615
	C364.77,127.75,389.697,153.946,404.742,185.737z M416.843,290.475h-49.991c2.192-22.062,2.295-44.872,0.027-67.896h50.193
	C421.664,244.824,421.627,268.055,416.843,290.475z M237.579,94.256v91.48h-48.333C198.051,149.982,213.938,117.213,237.579,94.256z
	 M182.739,222.579h54.84v67.896h-54.806C180.313,268.555,180.152,245.837,182.739,222.579z M237.579,327.315v91.179
	c-23.574-22.894-39.44-55.541-48.26-91.179H237.579z M274.421,419.03v-91.715h48.817
	C314.352,363.233,298.303,396.113,274.421,419.03z M329.785,290.475h-55.364v-67.896h55.397
	C332.257,244.5,332.395,267.218,329.785,290.475z M274.421,185.737V93.72c23.948,22.982,40.017,55.981,48.892,92.017H274.421z
	 M178.872,110.707c-12.569,22.61-21.716,48.18-27.472,75.03h-44.143C122.43,153.677,147.657,127.312,178.872,110.707z
	 M94.928,222.579h50.751c-2.144,21.794-2.288,44.589,0.029,67.896H95.157C90.378,268.077,90.331,244.848,94.928,222.579z
	 M107.749,327.315h43.719c5.669,26.313,14.598,51.399,26.821,73.67C147.682,384.546,122.877,358.703,107.749,327.315z
	 M334.5,400.565c12.105-22.165,20.957-47.104,26.591-73.25h43.159C389.254,358.435,364.746,384.106,334.5,400.565z"/>
</svg>
