<?xml version="1.0" encoding="utf-8"?>
<!-- Generator: Adobe Illustrator 17.0.1, SVG Export Plug-In . SVG Version: 6.00 Build 0)  -->
<!DOCTYPE svg PUBLIC "-//W3C//DTD SVG 1.1//EN" "http://www.w3.org/Graphics/SVG/1.1/DTD/svg11.dtd">
<svg version="1.1" id="Layer_1" xmlns="http://www.w3.org/2000/svg" xmlns:xlink="http://www.w3.org/1999/xlink" x="0px" y="0px"
	 width="150.37px" height="58.519px" viewBox="0 0 150.37 58.519" enable-background="new 0 0 150.37 58.519" xml:space="preserve">
<path fill="#D2D2D2" d="M126.079,15.465c-7.92,0-14.676,4.982-17.31,11.981h-63.89V9.217H34.503v10.441h-10.44V9.217H13.627v18.229
	H7.251v13.021h6.376h31.251h63.89c2.634,6.999,9.39,11.981,17.31,11.981c10.212,0,18.492-8.278,18.492-18.491
	C144.571,23.744,136.291,15.465,126.079,15.465z M126.078,39.424c-3.019,0-5.467-2.447-5.467-5.467c0-3.021,2.447-5.468,5.467-5.468
	c3.021,0,5.468,2.447,5.468,5.468C131.545,36.977,129.098,39.424,126.078,39.424z"/>
</svg>
