<?xml version="1.0" encoding="utf-8"?>
<!-- Generator: Adobe Illustrator 17.0.1, SVG Export Plug-In . SVG Version: 6.00 Build 0)  -->
<!DOCTYPE svg PUBLIC "-//W3C//DTD SVG 1.1//EN" "http://www.w3.org/Graphics/SVG/1.1/DTD/svg11.dtd">
<svg version="1.1" id="Layer_1" xmlns="http://www.w3.org/2000/svg" xmlns:xlink="http://www.w3.org/1999/xlink" x="0px" y="0px"
	 width="150.37px" height="58.519px" viewBox="0 0 150.37 58.519" enable-background="new 0 0 150.37 58.519" xml:space="preserve">
<path fill="#D2D2D2" d="M107.001,20.798h-63.89c-2.634-6.999-9.389-11.981-17.31-11.981c-10.212,0-18.492,8.278-18.492,18.49
	c0,10.215,8.279,18.493,18.492,18.493c7.921,0,14.676-4.982,17.31-11.982h63.89v18.229h10.651V41.607h10.441v10.441h10.159V33.819
	h6.376V20.798h-6.376H107.001z M25.802,32.776c-3.021,0-5.468-2.448-5.468-5.469c0-3.019,2.447-5.466,5.468-5.466
	c3.02,0,5.467,2.447,5.467,5.466C31.269,30.328,28.821,32.776,25.802,32.776z"/>
</svg>
